<svg preserveAspectRatio="none" width="100%" height="100%" overflow="visible" style="display: block;" viewBox="0 0 15 10" fill="none" xmlns="http://www.w3.org/2000/svg">
<path id="Vector" d="M9.99833 5.33168L13.4803 7.65301C13.5305 7.68642 13.5888 7.70558 13.6491 7.70846C13.7093 7.71134 13.7692 7.69783 13.8223 7.66937C13.8755 7.64092 13.9199 7.59857 13.9509 7.54685C13.9819 7.49513 13.9983 7.43598 13.9983 7.37568V1.91168C13.9984 1.85303 13.9829 1.79541 13.9535 1.74465C13.9241 1.69388 13.8819 1.65176 13.831 1.62255C13.7802 1.59333 13.7225 1.57805 13.6639 1.57825C13.6052 1.57845 13.5477 1.59412 13.497 1.62368L9.99833 3.66501M1.99833 0.665H8.665C9.40138 0.665 9.99833 1.26195 9.99833 1.99833V7.33167C9.99833 8.06805 9.40138 8.665 8.665 8.665H1.99833C1.26195 8.665 0.665 8.06805 0.665 7.33167V1.99833C0.665 1.26195 1.26195 0.665 1.99833 0.665Z" stroke="var(--stroke-0, #FAFAFA)" stroke-width="1.33" stroke-linecap="round" stroke-linejoin="round"/>
</svg>
