<svg preserveAspectRatio="none" width="100%" height="100%" overflow="visible" style="display: block;" viewBox="0 0 22 22" fill="none" xmlns="http://www.w3.org/2000/svg">
<path id="Vector" d="M7.83512 13H4.00012C3.79665 13.0111 3.60143 13.0841 3.44058 13.2092C3.27973 13.3343 3.16095 13.5055 3.10012 13.7L1.10012 19.7C1.00012 19.8 1.00012 19.9 1.00012 20C1.00012 20.6 1.40012 21 2.00012 21H20.0001C20.6001 21 21.0001 20.6 21.0001 20C21.0001 19.9 21.0001 19.8 20.9001 19.7L18.9001 13.7C18.8393 13.5055 18.7205 13.3343 18.5597 13.2092C18.3988 13.0841 18.2036 13.0111 18.0001 13H14.1651M17.0001 7C17.0001 11.5 11.0001 16 11.0001 16C11.0001 16 5.00012 11.5 5.00012 7C5.00012 5.4087 5.63226 3.88258 6.75748 2.75736C7.88269 1.63214 9.40882 1 11.0001 1C12.5914 1 14.1175 1.63214 15.2428 2.75736C16.368 3.88258 17.0001 5.4087 17.0001 7ZM13.0001 7C13.0001 8.10457 12.1047 9 11.0001 9C9.89555 9 9.00012 8.10457 9.00012 7C9.00012 5.89543 9.89555 5 11.0001 5C12.1047 5 13.0001 5.89543 13.0001 7Z" stroke="var(--stroke-0, #0A0A0A)" stroke-width="2" stroke-linecap="round" stroke-linejoin="round"/>
</svg>
