<svg preserveAspectRatio="none" width="100%" height="100%" overflow="visible" style="display: block;" viewBox="0 0 19 19" fill="none" xmlns="http://www.w3.org/2000/svg">
<path id="Vector" d="M4.08333 17.4167V2.41667C4.08333 1.97464 4.25893 1.55072 4.57149 1.23816C4.88405 0.925595 5.30797 0.75 5.75 0.75H12.4167C12.8587 0.75 13.2826 0.925595 13.5952 1.23816C13.9077 1.55072 14.0833 1.97464 14.0833 2.41667V17.4167M4.08333 17.4167H14.0833M4.08333 17.4167H2.41667C1.97464 17.4167 1.55072 17.2411 1.23816 16.9285C0.925595 16.616 0.75 16.192 0.75 15.75V10.75C0.75 10.308 0.925595 9.88405 1.23816 9.57149C1.55072 9.25893 1.97464 9.08333 2.41667 9.08333H4.08333M14.0833 17.4167H15.75C16.192 17.4167 16.616 17.2411 16.9285 16.9285C17.2411 16.616 17.4167 16.192 17.4167 15.75V8.25C17.4167 7.80797 17.2411 7.38405 16.9285 7.07149C16.616 6.75893 16.192 6.58333 15.75 6.58333H14.0833M7.41667 4.08333H10.75M7.41667 7.41667H10.75M7.41667 10.75H10.75M7.41667 14.0833H10.75" stroke="var(--stroke-0, #FAFAFA)" stroke-width="1.5" stroke-linecap="round" stroke-linejoin="round"/>
</svg>
