<svg preserveAspectRatio="none" width="100%" height="100%" overflow="visible" style="display: block;" viewBox="0 0 111 20" fill="none" xmlns="http://www.w3.org/2000/svg">
<g id="dwelloo.">
<path d="M0 12.3097C0 10.8144 0.293955 9.48821 0.881864 8.33111C1.48759 7.17401 2.3071 6.28393 3.34039 5.66088C4.37369 5.03783 5.52278 4.7263 6.78768 4.7263C7.74971 4.7263 8.66721 4.93992 9.54016 5.36716C10.4131 5.77659 11.1079 6.32844 11.6246 7.0227V0H15.4193V19.7597H11.6246V17.5701C11.1614 18.3 10.5111 18.8874 9.67378 19.3324C8.83645 19.7775 7.86551 20 6.76096 20C5.51388 20 4.37369 19.6796 3.34039 19.0387C2.3071 18.3979 1.48759 17.4989 0.881864 16.3418C0.293955 15.1669 0 13.8229 0 12.3097ZM11.6513 12.3631C11.6513 11.4553 11.4731 10.6809 11.1168 10.0401C10.7605 9.3814 10.2795 8.88295 9.67378 8.54473C9.06805 8.1887 8.41779 8.01068 7.72299 8.01068C7.02819 8.01068 6.38683 8.17979 5.79892 8.51802C5.21101 8.85625 4.73 9.35469 4.35587 10.0134C3.99956 10.6542 3.82141 11.4197 3.82141 12.3097C3.82141 13.1998 3.99956 13.9831 4.35587 14.6595C4.73 15.3182 5.21101 15.8255 5.79892 16.1816C6.40465 16.5376 7.046 16.7156 7.72299 16.7156C8.41779 16.7156 9.06805 16.5465 9.67378 16.2083C10.2795 15.8522 10.7605 15.3538 11.1168 14.713C11.4731 14.0543 11.6513 13.271 11.6513 12.3631Z" fill="var(--fill-0, #0276C1)"/>
<path d="M39.5966 4.96662L35.2674 19.7597H31.2323L28.5332 9.4259L25.8342 19.7597H21.7723L17.4164 4.96662H21.2111L23.8299 16.235L26.6626 4.96662H30.6176L33.3968 16.2083L36.0157 4.96662H39.5966Z" fill="var(--fill-0, #0276C1)"/>
<path d="M55.3833 12.0427C55.3833 12.5768 55.3477 13.0574 55.2764 13.4846H44.4535C44.5426 14.5527 44.9167 15.3894 45.5759 15.9947C46.2351 16.5999 47.0457 16.9025 48.0077 16.9025C49.3973 16.9025 50.3861 16.3062 50.974 15.1135H55.0092C54.5816 16.5376 53.7621 17.7125 52.5506 18.6382C51.3392 19.5461 49.8516 20 48.0879 20C46.6626 20 45.3799 19.6885 44.2397 19.0654C43.1174 18.4246 42.2355 17.5256 41.5942 16.3685C40.9706 15.2114 40.6588 13.8763 40.6588 12.3631C40.6588 10.8322 40.9706 9.48821 41.5942 8.33111C42.2177 7.17401 43.0907 6.28393 44.213 5.66088C45.3354 5.03783 46.627 4.7263 48.0879 4.7263C49.4953 4.7263 50.7513 5.02893 51.8558 5.63418C52.9782 6.23943 53.8423 7.1028 54.448 8.2243C55.0715 9.32799 55.3833 10.6008 55.3833 12.0427ZM51.5084 10.9746C51.4906 10.0134 51.1432 9.24789 50.4662 8.67824C49.7892 8.09079 48.9608 7.79706 47.981 7.79706C47.0546 7.79706 46.2707 8.08189 45.6293 8.65153C45.0058 9.20338 44.6228 9.97775 44.4803 10.9746H51.5084Z" fill="var(--fill-0, #0276C1)"/>
<path d="M61.8553 0V19.7597H58.1141V0H61.8553Z" fill="var(--fill-0, #0276C1)"/>
<path d="M69.2929 0V19.7597H65.5517V0H69.2929Z" fill="var(--fill-0, #0276C1)"/>
<path d="M79.5631 20C78.1379 20 76.8552 19.6885 75.715 19.0654C74.5748 18.4246 73.6751 17.5256 73.016 16.3685C72.3746 15.2114 72.0539 13.8763 72.0539 12.3631C72.0539 10.85 72.3835 9.51491 73.0427 8.35781C73.7197 7.20071 74.6372 6.31064 75.7952 5.68758C76.9532 5.04673 78.2448 4.7263 79.67 4.7263C81.0953 4.7263 82.3869 5.04673 83.5449 5.68758C84.7029 6.31064 85.6115 7.20071 86.2707 8.35781C86.9476 9.51491 87.2861 10.85 87.2861 12.3631C87.2861 13.8763 86.9387 15.2114 86.2439 16.3685C85.5669 17.5256 84.6405 18.4246 83.4647 19.0654C82.3067 19.6885 81.0062 20 79.5631 20ZM79.5631 16.7423C80.2401 16.7423 80.8726 16.5821 81.4605 16.2617C82.0662 15.9235 82.5472 15.425 82.9035 14.7664C83.2598 14.1077 83.438 13.3066 83.438 12.3631C83.438 10.9568 83.0639 9.87984 82.3156 9.13218C81.5852 8.36671 80.6855 7.98398 79.6166 7.98398C78.5477 7.98398 77.648 8.36671 76.9176 9.13218C76.2049 9.87984 75.8486 10.9568 75.8486 12.3631C75.8486 13.7695 76.196 14.8554 76.8908 15.6208C77.6035 16.3685 78.4942 16.7423 79.5631 16.7423Z" fill="var(--fill-0, #0276C1)"/>
<path d="M96.6044 20C95.1791 20 93.8964 19.6885 92.7562 19.0654C91.6161 18.4246 90.7164 17.5256 90.0572 16.3685C89.4158 15.2114 89.0952 13.8763 89.0952 12.3631C89.0952 10.85 89.4248 9.51491 90.0839 8.35781C90.7609 7.20071 91.6784 6.31064 92.8364 5.68758C93.9944 5.04673 95.286 4.7263 96.7113 4.7263C98.1365 4.7263 99.4281 5.04673 100.586 5.68758C101.744 6.31064 102.653 7.20071 103.312 8.35781C103.989 9.51491 104.327 10.85 104.327 12.3631C104.327 13.8763 103.98 15.2114 103.285 16.3685C102.608 17.5256 101.682 18.4246 100.506 19.0654C99.3479 19.6885 98.0474 20 96.6044 20ZM96.6044 16.7423C97.2814 16.7423 97.9138 16.5821 98.5017 16.2617C99.1074 15.9235 99.5885 15.425 99.9448 14.7664C100.301 14.1077 100.479 13.3066 100.479 12.3631C100.479 10.9568 100.105 9.87984 99.3569 9.13218C98.6264 8.36671 97.7267 7.98398 96.6578 7.98398C95.5889 7.98398 94.6892 8.36671 93.9588 9.13218C93.2462 9.87984 92.8899 10.9568 92.8899 12.3631C92.8899 13.7695 93.2373 14.8554 93.9321 15.6208C94.6447 16.3685 95.5354 16.7423 96.6044 16.7423Z" fill="var(--fill-0, #0276C1)"/>
<path d="M108.729 19.9466C108.052 19.9466 107.49 19.7419 107.045 19.3324C106.617 18.9052 106.404 18.3801 106.404 17.757C106.404 17.134 106.617 16.6177 107.045 16.2083C107.49 15.781 108.052 15.5674 108.729 15.5674C109.388 15.5674 109.931 15.781 110.359 16.2083C110.786 16.6177 111 17.134 111 17.757C111 18.3801 110.786 18.9052 110.359 19.3324C109.931 19.7419 109.388 19.9466 108.729 19.9466Z" fill="var(--fill-0, #0276C1)"/>
</g>
</svg>
